# xmcd CD database file
#
# Track frame offsets:
#	150
#	15600
#	28327
#	45927
#	63110
#	82832
#	98467
#	114200
#	134397
#	147112
#	164375
#	185007
#	200410
#	215907
#
# Disc length: 3007 seconds
#
# Revision: 0
# Processed by: cddbd v1.4PL0 Copyright (c) Steve Scherf et al.
# Submitted via: CDex 1.40Release
#
DISCID=b60bbd0e
DTITLE=Kindred Spirit - Parts and Labor
DYEAR=1999
DGENRE=Country
TTITLE0=Geronimo
TTITLE1=L.O.V.E. Love
TTITLE2=Make Something Up
TTITLE3=Redneck Riviera
TTITLE4=HomeSweet Honky-Tonk
TTITLE5=I Wanna Be Yours
TTITLE6=Rodeo Rose
TTITLE7=Georgia Dreamin'
TTITLE8=Girls Down South
TTITLE9={For Better or Worse} But Not For Good
TTITLE10=High On The Hog
TTITLE11=East Of Eden
TTITLE12=The Homefolks Choir
TTITLE13=Children Go
EXTD=YEAR: 1999 ID3G: 2
EXTT0=
EXTT1=
EXTT2=
EXTT3=
EXTT4=
EXTT5=
EXTT6=
EXTT7=
EXTT8=
EXTT9=
EXTT10=
EXTT11=
EXTT12=
EXTT13=
PLAYORDER=
